<svg id="Capa_1" enable-background="new 0 0 284.546 284.546" height="512" viewBox="0 0 284.546 284.546" width="512" xmlns="http://www.w3.org/2000/svg"><path d="m38.218 203.923c-1.209 0-2.423-.465-3.348-1.385-22.488-22.412-34.87-52.236-34.87-83.976 0-65.373 53.185-118.558 118.558-118.558 31.593 0 61.313 12.283 83.688 34.581 1.854 1.85 1.859 4.847.009 6.706-1.85 1.854-4.851 1.854-6.706.009-20.582-20.51-47.926-31.811-76.991-31.811-60.142-.001-109.073 48.926-109.073 109.073 0 29.203 11.396 56.642 32.082 77.262 1.854 1.85 1.859 4.847.009 6.706-.925.928-2.139 1.393-3.358 1.393z"/><path d="m79.367 284.542c-.052 0-.109 0-.161 0-14.962-.062-27.093-12.273-27.031-27.221v-33.481c-.308-13.734 9.722-25.537 23.356-27.458 10.433-1.371 20.676-3.917 30.498-7.578 9.878-3.704 21.118-1.309 28.634 6.103l11.671 11.647c24.878-14.806 45.697-35.582 60.531-60.403l-11.642-11.619c-7.45-7.521-9.85-18.751-6.132-28.629 3.661-9.783 6.212-20.013 7.578-30.375 1.906-13.468 13.582-23.55 27.164-23.361h33.576c.811 0 1.617.038 2.423.109 7.218.654 13.757 4.069 18.405 9.627 4.647 5.563 6.848 12.596 6.198 19.813-3.746 35.216-15.896 69.465-35.15 99.129-17.437 27.387-41.196 51.094-68.678 68.526-29.545 19.121-63.703 31.247-98.744 35.046-.879.088-1.689.125-2.496.125zm36.179-87.974c-2.087 0-4.187.365-6.198 1.124-10.499 3.908-21.445 6.63-32.542 8.086-8.844 1.247-15.375 8.939-15.152 17.888v.114 33.552c-.038 9.741 7.853 17.679 17.599 17.717.555-.014 1.105-.019 1.65-.076 33.5-3.633 66.231-15.251 94.576-33.595 26.348-16.707 49.097-39.413 65.814-65.672 18.467-28.449 30.109-61.266 33.689-94.927.417-4.614-1.015-9.191-4.036-12.799-3.021-3.618-7.279-5.843-11.979-6.265-.517-.033-1.043-.062-1.565-.062h-33.618c-8.754-.071-16.48 6.431-17.717 15.161-1.456 11.026-4.183 21.952-8.1 32.423-2.419 6.426-.863 13.724 3.969 18.599l14.213 14.184c1.513 1.508 1.831 3.851.773 5.705-16.366 28.734-40.234 52.55-69.02 68.887-1.854 1.043-4.183.74-5.691-.768l-14.232-14.203c-3.351-3.304-7.851-5.073-12.433-5.073z"/><path d="m77.034 180.207c-2.034 0-4.017-.835-5.439-2.347-11.296-12.031-10.395-35.923-10.352-36.933-.005-7.896 2.172-17.319 4.003-23.802 1.181-4.187.398-8.678-2.148-12.33-.465-.669-.906-1.333-1.333-1.992-6.284-9.764-9.598-21.412-9.598-33.699v-5.819c0-20.046 20.904-25.343 31.958-25.343 11.884 0 20.401 5.819 24.949 9.949 4.548-4.131 13.065-9.949 24.949-9.949 11.054 0 31.958 5.297 31.958 25.348v5.819c0 12.287-3.315 23.934-9.584 33.689-.432.673-.877 1.333-1.342 2.001-2.551 3.656-3.334 8.147-2.153 12.335 1.826 6.478 4.003 15.906 4.003 24.006.038.806.939 24.698-10.357 36.729-1.84 1.954-4.61 2.788-7.223 2.129-2.637-.65-4.733-2.675-5.458-5.292-5.88-21.151-16.285-42.562-24.798-42.562s-18.917 21.412-24.798 42.558c-.73 2.622-2.822 4.647-5.458 5.297-.584.137-1.186.208-1.779.208zm32.039-57.558c16.788 0 27.951 29.431 32.831 45.687 5.036-8.323 5.738-21.9 5.525-27.007-.005-7.213-1.987-15.721-3.652-21.63-1.954-6.933-.678-14.341 3.5-20.33.398-.569.782-1.148 1.152-1.717 5.273-8.209 8.067-18.087 8.067-28.549v-5.819c0-15.578-21.554-15.858-22.483-15.863-13.193.005-20.842 9.779-21.16 10.196-.896 1.171-2.295 1.868-3.77 1.868-.009 0-.014 0-.024 0-1.484-.009-2.883-.697-3.775-1.883-.308-.398-7.962-10.177-21.16-10.177-.906.005-22.474.28-22.474 15.863v5.819c0 10.462 2.793 20.34 8.076 28.553.36.56.745 1.133 1.148 1.712 4.173 5.985 5.449 13.392 3.495 20.326-1.665 5.904-3.647 14.412-3.647 21.431-.213 5.283.484 18.879 5.52 27.207 4.88-16.256 16.043-45.687 32.831-45.687z"/><path d="m90.104 71.138c-2.618 0-4.742-2.12-4.742-4.742 0-2.623 2.125-4.742 4.742-4.742 4.861 0 12.017-6.137 15.389-10.006 1.721-1.968 4.714-2.186 6.687-.465 1.978 1.712 2.186 4.704.474 6.682-1.176 1.356-11.813 13.273-22.55 13.273z"/></svg>